<svg xmlns="http://www.w3.org/2000/svg" viewBox="0 0 760 420" role="img" aria-labelledby="title desc">
  <title id="title">Veterinary clinic care scene</title>
  <desc id="desc">A clean clinic illustration with a pet patient and veterinary care elements.</desc>
  <defs>
    <linearGradient id="room" x1="0" x2="1" y1="0" y2="1">
      <stop offset="0" stop-color="#fbf8f3"/>
      <stop offset="1" stop-color="#e7f4ec"/>
    </linearGradient>
    <linearGradient id="coat" x1="0" x2="1" y1="0" y2="1">
      <stop offset="0" stop-color="#ffffff"/>
      <stop offset="1" stop-color="#dcebe1"/>
    </linearGradient>
    <linearGradient id="dog" x1="0" x2="1" y1="0" y2="1">
      <stop offset="0" stop-color="#d7964e"/>
      <stop offset="1" stop-color="#ad6936"/>
    </linearGradient>
    <filter id="shadow" x="-20%" y="-20%" width="140%" height="140%">
      <feDropShadow dx="0" dy="18" stdDeviation="18" flood-color="#2d2118" flood-opacity="0.18"/>
    </filter>
  </defs>
  <rect width="760" height="420" fill="url(#room)"/>
  <rect x="492" y="58" width="168" height="230" rx="18" fill="#ffffff" opacity="0.74"/>
  <rect x="524" y="90" width="104" height="12" rx="6" fill="#cfe5d6"/>
  <rect x="524" y="122" width="88" height="12" rx="6" fill="#dcebe1"/>
  <rect x="524" y="154" width="116" height="12" rx="6" fill="#dcebe1"/>
  <circle cx="612" cy="272" r="36" fill="#d7eadf"/>
  <path d="M604 252h16v40h-16zM592 264h40v16h-40z" fill="#2f7d52"/>
  <g filter="url(#shadow)">
    <path d="M332 104c42 0 78 34 78 76v124H254V180c0-42 35-76 78-76z" fill="url(#coat)"/>
    <path d="M276 182h112v122H276z" fill="#ffffff"/>
    <path d="M300 186c18 22 45 22 64 0v118h-64z" fill="#eaf4ed"/>
    <circle cx="332" cy="88" r="48" fill="#d7a37f"/>
    <path d="M291 84c16-46 76-48 93-6-18-12-46-18-93 6z" fill="#51392e"/>
    <circle cx="313" cy="91" r="5" fill="#13231f"/>
    <circle cx="350" cy="91" r="5" fill="#13231f"/>
    <path d="M316 116c10 9 25 9 35 0" fill="none" stroke="#8e5438" stroke-width="6" stroke-linecap="round"/>
    <path d="M388 198c40 6 62 34 74 79" fill="none" stroke="#2f7d52" stroke-width="12" stroke-linecap="round"/>
    <circle cx="467" cy="286" r="14" fill="#2f7d52"/>
  </g>
  <g filter="url(#shadow)">
    <ellipse cx="226" cy="306" rx="106" ry="38" fill="#e7ded6"/>
    <path d="M156 236c0-58 42-105 94-105s94 47 94 105v56H156z" fill="url(#dog)"/>
    <circle cx="250" cy="126" r="58" fill="#c97f41"/>
    <path d="M198 128c-34 4-48 37-31 65 19-3 34-24 31-65zM302 128c34 4 48 37 31 65-19-3-34-24-31-65z" fill="#8b5735"/>
    <circle cx="229" cy="128" r="7" fill="#13231f"/>
    <circle cx="270" cy="128" r="7" fill="#13231f"/>
    <path d="M247 145c4-4 9-4 13 0-2 7-10 7-13 0z" fill="#2f2019"/>
    <path d="M235 164c11 10 31 10 42 0" fill="none" stroke="#5f3624" stroke-width="7" stroke-linecap="round"/>
    <path d="M198 205c28 23 76 23 104 0v88H198z" fill="#e7b36f"/>
    <path d="M185 292h130" stroke="#8d5834" stroke-width="10" stroke-linecap="round"/>
  </g>
  <rect x="90" y="48" width="118" height="42" rx="21" fill="#ffffff" opacity="0.82"/>
  <circle cx="120" cy="69" r="13" fill="#2f7d52"/>
  <circle cx="145" cy="64" r="7" fill="#2f7d52"/>
  <circle cx="163" cy="71" r="6" fill="#2f7d52"/>
  <rect x="210" y="334" width="276" height="28" rx="14" fill="#ffffff" opacity="0.8"/>
</svg>
